<?xml version="1.0" encoding="UTF-8" standalone="no"?>
<!--part of the matt icon theme by sixsixfive released under CC0 (https://creativecommons.org/publicdomain/zero/1.0/) on openclipart-->
<svg xmlns="http://www.w3.org/2000/svg" xmlns:xlink="http://www.w3.org/1999/xlink" viewBox="0 0 128 128">
 <defs id="0">
  <linearGradient id="A">
   <stop id="Q"/>
   <stop offset="1" id="R" stop-opacity="0"/>
  </linearGradient>
  <linearGradient id="B">
   <stop id="S" stop-opacity="0.33"/>
   <stop offset="1" id="T" stop-opacity="0"/>
  </linearGradient>
  <linearGradient id="C">
   <stop id="U" stop-color="#fff"/>
   <stop offset="1" id="V" stop-color="#fff" stop-opacity="0"/>
  </linearGradient>
  <linearGradient id="D">
   <stop id="W" stop-color="#bbb"/>
   <stop offset="1" id="X" stop-color="#9b9b9b"/>
  </linearGradient>
  <linearGradient id="E">
   <stop id="Y" stop-color="#eee"/>
   <stop offset="1" id="Z" stop-color="#ddd"/>
  </linearGradient>
  <radialGradient xlink:href="#E" id="F" cx="36.794" cy="62.08" r="55.766" gradientTransform="matrix(0.7667623,-0.104838,5.399168e-2,0.3948832,10.082408,-2.9781214)" gradientUnits="userSpaceOnUse"/>
  <radialGradient xlink:href="#D" id="G" cx="28.02" cy="16.985" r="62.2" gradientTransform="matrix(1.5841217,-0.2442028,0.1394764,0.9047707,-16.750946,26.630343)" gradientUnits="userSpaceOnUse"/>
  <filter id="H" x="-0.012" width="1.025" y="-0.396" height="1.792">
   <feGaussianBlur stdDeviation="0.59926" id="a"/>
  </filter>
  <linearGradient xlink:href="#A" id="I" y1="29.321" x2="0" y2="25.688" gradientUnits="userSpaceOnUse"/>
  <radialGradient xlink:href="#C" id="J" cx="52.981" cy="-3.245" r="53.55" gradientTransform="matrix(1.8022603,2.6564914e-2,-1.2372843e-2,0.8394186,-30.322336,8.4010665)" gradientUnits="userSpaceOnUse"/>
  <radialGradient xlink:href="#C" id="K" cx="58" cy="-21.826" r="59.896" gradientTransform="matrix(1.9737017,-4.2747877e-2,1.3570323e-2,0.6265521,-54.434832,27.088068)" gradientUnits="userSpaceOnUse"/>
  <linearGradient xlink:href="#B" id="L" y1="109.56" x2="0" y2="101.48" gradientUnits="userSpaceOnUse"/>
  <radialGradient xlink:href="#A" id="M" cx="65.14" cy="106.7" r="63.15" gradientTransform="matrix(1,0,0,5.8823529e-2,0,100.42419)" gradientUnits="userSpaceOnUse"/>
  <filter id="N">
   <feGaussianBlur stdDeviation="1.88808" id="b"/>
  </filter>
  <filter id="O" x="-0.02" width="1.041" y="-0.345" height="1.689">
   <feGaussianBlur stdDeviation="1.06662" id="c"/>
  </filter>
  <radialGradient xlink:href="#D" id="P" gradientUnits="userSpaceOnUse" gradientTransform="matrix(1.5878396,-0.1769157,0.1398037,0.6554723,-16.941161,48.413404)" cx="28.02" cy="16.985" r="62.2"/>
 </defs>
 <path id="1" d="M 128.29104,106.70071 A 63.154858,3.7149916 0 1 1 1.9813271,106.70071 A 63.154858,3.7149916 0 1 1 128.29104,106.70071 z" transform="matrix(1.1470588,0,0,1,-10.715034,-0.7429983)" opacity="0.541" fill="url(#M)" filter="url(#O)" stroke-linejoin="bevel" stroke-linecap="round" stroke-width="1.949"/>
 <path id="2" d="M 17.78125,11.09375 C 14.392952,11.09375 11.59375,13.892958 11.59375,17.28125 L 11.59375,21.21875 C 8.6713464,21.704786 6.375,24.17052 6.375,27.21875 L 6.375,103.3125 C 6.3750006,106.70079 9.1741985,109.5 12.5625,109.5 L 116.375,109.5 C 119.7633,109.5 122.59375,106.72373 122.59375,103.3125 L 122.59375,27.21875 C 122.59375,23.807525 119.7633,21.03125 116.375,21.03125 L 56.59375,21.03125 L 56.59375,17.28125 C 56.59375,13.892951 53.794545,11.09375 50.40625,11.09375 L 17.78125,11.09375 z" transform="matrix(0.9652278,0,0,0.9652278,2.9590038,0.385754)" fill="#898989" stroke-linejoin="bevel" stroke-linecap="round" stroke-width="2"/>
 <path d="M 20.114824,13.348291 C 18.056621,13.348291 16.40473,15.000187 16.40473,17.058386 L 16.40473,22.940243 L 15.077542,22.940243 C 13.019338,22.940243 11.367447,24.592139 11.367447,26.650337 L 11.367447,100.09814 C 11.367447,102.15633 13.019338,103.80823 15.077542,103.80823 L 115.28026,103.80823 C 117.33845,103.80823 119.02052,102.15633 119.02052,100.09814 L 119.02052,26.650337 C 119.02052,24.592139 117.33846,22.940243 115.28026,22.940243 L 55.315476,22.940243 L 55.315476,17.058386 C 55.315476,15.000188 53.663575,13.348291 51.605382,13.348291 L 20.114824,13.348291 z" id="3" fill="url(#F)" stroke-linejoin="bevel" stroke-linecap="round" stroke-width="2"/>
 <path id="4" d="M 20.125,14.625 C 18.758893,14.625 17.6875,15.696396 17.6875,17.0625 L 17.6875,22.9375 C 17.684419,23.643834 17.112584,24.215669 16.40625,24.21875 L 15.0625,24.21875 C 13.696392,24.21875 12.65625,25.277123 12.65625,26.65625 L 12.65625,100.09375 C 12.65625,101.47287 13.696395,102.53125 15.0625,102.53125 L 115.28125,102.53125 C 116.64734,102.53125 117.75,101.44681 117.75,100.09375 L 117.75,26.65625 C 117.75,25.303174 116.64735,24.21875 115.28125,24.21875 L 55.3125,24.21875 C 54.606166,24.215669 54.034331,23.643834 54.03125,22.9375 L 54.03125,17.0625 C 54.031251,15.696403 52.959844,14.625 51.59375,14.625 L 20.125,14.625 z" fill="none" stroke="url(#J)" stroke-linejoin="bevel" stroke-linecap="round" stroke-width="2"/>
 <path d="M 122.21875,25.687905 L 6.375,25.711212 L 6.375,29.049546 C 6.3750006,29.198195 9.1741985,29.321 12.5625,29.321 L 116.375,29.321 C 119.7633,29.321 122.59375,29.199201 122.59375,29.049546 L 122.59375,25.711212 C 122.59375,25.703724 122.57639,25.696612 122.5625,25.689276 C 122.44634,25.68897 122.33648,25.687905 122.21875,25.687905 z" id="5" transform="matrix(0.9674932,0,0,2.2183776,2.8150474,-15.141532)" opacity="0.346" fill="url(#I)" filter="url(#H)" stroke-linejoin="bevel" stroke-linecap="round" stroke-width="1.949"/>
 <path id="6" d="M 122.21875,26.6875 L 4.875,27.21875 C 1.6279319,27.21875 -1.0625,29.909183 -1.0625,33.15625 C -1.0635813,33.19791 -1.0635813,33.23959 -1.0625,33.28125 L 2.59375,103.625 L 2.59375,103.75 L 2.625,103.75 C 2.6978833,106.96136 5.3597163,109.5625 8.5625,109.5625 L 120.375,109.5625 C 123.62207,109.5625 126.3125,106.87207 126.3125,103.625 L 128.15625,32.6875 C 128.15652,32.666668 128.15652,32.645832 128.15625,32.625 C 128.15625,29.377933 125.46582,26.6875 122.21875,26.6875 z" transform="matrix(0.9674932,0,0,0.6992712,2.8150474,29.400186)" fill="#898989" stroke-linejoin="bevel" stroke-linecap="round" stroke-width="1.949"/>
 <path d="M 7.5380747,50.113169 L 121.0467,49.733786 C 122.94335,49.733786 124.47028,50.837385 124.47028,52.208222 L 122.70635,101.86412 C 122.70635,103.23496 121.17943,104.33855 119.28278,104.33855 L 11.084228,104.33855 C 9.1875734,104.33855 7.6606657,103.23496 7.6606657,101.86412 L 4.1145101,52.587606 C 4.1145101,51.216768 5.6414204,50.113169 7.5380747,50.113169 z" id="7" fill="url(#P)" stroke-linejoin="bevel" stroke-linecap="round" stroke-width="1.949"/>
 <path id="8" d="M 120.90625,29.5625 L 7.65625,30.09375 C 6.3828582,30.09375 5.3749999,31.120343 5.375,32.40625 L 8.90625,100.34375 C 8.9068228,100.36458 8.9068228,100.38542 8.90625,100.40625 C 8.90625,101.67964 9.9328455,102.6875 11.21875,102.6875 L 119.15625,102.6875 C 120.44215,102.6875 121.4375,101.69215 121.4375,100.40625 C 121.43736,100.39583 121.43736,100.38542 121.4375,100.375 L 123.21875,31.84375 C 123.21875,30.570361 122.17964,29.5625 120.90625,29.5625 z" transform="matrix(1.002347,0,0,0.7244624,-0.1509011,29.120722)" fill="none" stroke="url(#K)" stroke-linejoin="bevel" stroke-linecap="round" stroke-width="1.949"/>
 <path transform="matrix(0.9674932,0,0,0.6992712,2.8150474,29.400186)" d="M 122.21875,26.6875 L 4.875,27.21875 C 1.6279319,27.21875 -1.0625,29.909183 -1.0625,33.15625 C -1.0635813,33.19791 -1.0635813,33.23959 -1.0625,33.28125 L 2.59375,103.625 L 2.59375,103.75 L 2.625,103.75 C 2.6978833,106.96136 5.3597163,109.5625 8.5625,109.5625 L 120.375,109.5625 C 123.62207,109.5625 126.3125,106.87207 126.3125,103.625 L 128.15625,32.6875 C 128.15652,32.666668 128.15652,32.645832 128.15625,32.625 C 128.15625,29.377933 125.46582,26.6875 122.21875,26.6875 z" id="9" fill="url(#L)" filter="url(#N)" stroke-linejoin="bevel" stroke-linecap="round" stroke-width="1.949"/>
</svg>
